<?xml version="1.0" standalone="no"?>
<!DOCTYPE svg PUBLIC "-//W3C//DTD SVG 20010904//EN"
 "http://www.w3.org/TR/2001/REC-SVG-20010904/DTD/svg10.dtd">
<svg version="1.0" xmlns="http://www.w3.org/2000/svg"
 width="700.000000pt" height="700.000000pt" viewBox="0 0 700.000000 700.000000"
 preserveAspectRatio="xMidYMid meet">
<metadata>
Created by potrace 1.14, written by Peter Selinger 2001-2017
</metadata>
<g transform="translate(0.000000,700.000000) scale(0.100000,-0.100000)"
fill="#000000" stroke="none">
<path d="M535 6985 c-269 -50 -472 -254 -521 -525 -20 -112 -20 -5808 0 -5920
26 -144 100 -277 204 -370 79 -70 216 -137 317 -155 120 -21 5810 -21 5930 0
124 22 251 89 342 181 90 92 157 218 178 339 21 120 21 5810 0 5930 -18 102
-85 239 -155 317 -93 105 -226 178 -370 204 -109 19 -5819 19 -5925 -1z m4980
-885 c13 -114 68 -496 120 -839 30 -195 53 -357 51 -358 -8 -9 -195 -13 -220
-6 -25 8 -36 25 -81 128 -109 246 -192 374 -329 510 -167 165 -354 247 -656
287 -68 9 -281 12 -740 13 l-645 0 0 -1075 0 -1075 390 2 c499 2 622 16 761
83 160 78 255 265 312 615 18 108 18 110 47 116 40 9 155 10 191 3 l29 -5 0
-997 c0 -663 -3 -999 -10 -1004 -18 -13 -210 -9 -227 4 -10 9 -21 55 -33 136
-55 389 -157 582 -342 652 -128 48 -172 52 -661 57 l-464 5 5 -953 c4 -1041 4
-1036 62 -1136 66 -111 171 -145 554 -178 96 -8 176 -16 177 -18 3 -4 8 -130
6 -182 l-2 -51 -1194 0 c-1190 1 -1195 1 -1200 21 -8 27 -7 164 0 192 5 18 15
23 58 27 28 3 116 13 196 21 408 44 476 94 500 361 16 175 8 4047 -9 4129 -6
33 -25 87 -41 121 -59 121 -167 162 -524 199 -83 9 -151 16 -152 18 -4 4 -8
131 -6 182 l2 50 2034 0 2034 0 7 -55z"/>
</g>
</svg>
