<svg width="121" height="87" viewBox="0 0 121 87" fill="none" xmlns="http://www.w3.org/2000/svg">
<path d="M105.909 52.3536C105.953 52.0651 106.052 51.8194 106.203 51.6167C106.369 51.419 106.587 51.3476 106.855 51.4027C107.093 51.4477 107.27 51.5737 107.387 51.7809C107.519 51.9931 107.568 52.2283 107.533 52.4864C107.259 54.3338 106.965 56.1661 106.65 57.9832C106.356 59.7902 106.041 61.5568 105.706 63.2829C105.621 63.7435 105.491 64.0373 105.314 64.1642C105.142 64.2759 104.96 64.3421 104.768 64.3628C104.56 64.3785 104.386 64.3207 104.244 64.1895C104.117 64.0633 104.063 63.8939 104.083 63.6813L104.106 63.5371L104.007 63.5297C103.445 63.5462 102.886 63.4792 102.329 63.3287C101.777 63.163 101.276 62.9213 100.825 62.6036C100.374 62.2859 100.006 61.8946 99.7215 61.4298C99.4573 60.9548 99.3296 60.4239 99.3383 59.8369C99.3606 58.5466 99.9402 57.5587 101.077 56.873C101.557 56.5936 102.108 56.3798 102.73 56.2316C103.352 56.0834 104.058 56.0388 104.847 56.0977L105.287 56.1422L105.909 52.3536ZM100.917 59.727C100.887 60.1217 100.961 60.458 101.139 60.7359C101.317 61.0137 101.56 61.2459 101.869 61.4324C102.183 61.6037 102.538 61.7294 102.933 61.8094C103.328 61.8894 103.727 61.929 104.132 61.928L104.36 61.9275L105.048 57.7062L104.555 57.6694C104.206 57.655 103.816 57.6863 103.386 57.7632C102.977 57.8299 102.592 57.9471 102.233 58.115C101.875 58.2828 101.567 58.501 101.309 58.7698C101.067 59.0436 100.936 59.3626 100.917 59.727Z" fill="#FF640A"/>
<path d="M99.4611 54.3162C99.1375 54.3777 98.7961 54.4417 98.437 54.5083C98.0931 54.58 97.7316 54.6795 97.3524 54.8069C96.9934 54.9241 96.627 55.0894 96.2531 55.3027C95.8994 55.5059 95.5484 55.7775 95.2 56.1173C94.7053 56.594 94.3043 57.1186 93.997 57.6911C93.6947 58.2484 93.4329 58.8106 93.2116 59.3778C93.1211 59.6512 92.9598 59.9096 92.7277 60.153C92.5157 60.3863 92.2958 60.4652 92.0679 60.3898C91.7793 60.2944 91.5916 60.0722 91.5048 59.7233C91.4381 59.3642 91.4197 59.0379 91.4494 58.7444C91.5478 57.5804 91.6869 56.4467 91.8665 55.3433C92.0511 54.2247 92.2559 53.1212 92.4811 52.0329C92.5514 51.8202 92.6574 51.7036 92.799 51.683C92.9558 51.6675 93.1153 51.6949 93.2774 51.7654C93.4546 51.8409 93.6142 51.9442 93.7562 52.0754C93.8982 52.2066 93.9567 52.3608 93.9318 52.538C93.8067 53.1201 93.6867 53.7377 93.5719 54.3906C93.462 55.0284 93.3798 55.5826 93.3253 56.0533C93.5569 55.5569 93.8898 55.1109 94.324 54.7152C94.7582 54.3196 95.2381 53.9896 95.7637 53.7253C96.3045 53.466 96.8707 53.2825 97.4624 53.1749C98.0694 53.0723 98.6537 53.0633 99.2156 53.148C99.4535 53.193 99.6434 53.2558 99.7852 53.3364C99.9271 53.4171 100.016 53.5054 100.051 53.6014C100.087 53.6975 100.054 53.8215 99.9537 53.9736C99.868 54.1306 99.7038 54.2448 99.4611 54.3162Z" fill="#FF640A"/>
<path d="M90.3443 50.6689C90.2644 51.1143 90.1592 51.5851 90.0288 52.0812C89.9187 52.5672 89.7908 53.0558 89.6452 53.5469C89.5148 54.0431 89.3742 54.519 89.2235 54.9747C89.0728 55.4304 88.9295 55.8381 88.7937 56.1976C89.1693 56.6926 89.36 57.0843 89.3657 57.3727C89.3866 57.6661 89.3264 57.899 89.1852 58.0713C89.0036 58.3146 88.7888 58.4036 88.5407 58.3385C88.3128 58.2631 88.0746 58.0916 87.8261 57.824C87.5632 57.9056 87.2648 57.9923 86.9311 58.0842C86.6024 58.1608 86.2585 58.2324 85.8995 58.2991C85.5454 58.3505 85.1964 58.3867 84.8523 58.4078C84.5083 58.4288 84.1997 58.4194 83.9264 58.3796C83.4151 58.2947 83.0048 58.0579 82.6952 57.669C82.4009 57.2852 82.2707 56.8124 82.3049 56.2507C82.3293 55.8711 82.4246 55.5066 82.5907 55.1571C82.7619 54.7924 82.9939 54.4731 83.2867 54.1992C83.5846 53.9101 83.9306 53.6791 84.3249 53.5062C84.7343 53.3383 85.1768 53.2487 85.6524 53.2374C85.7738 53.227 85.9307 53.2368 86.123 53.2667C86.3305 53.3016 86.5305 53.3594 86.723 53.4399C86.9357 53.5102 87.1358 53.6185 87.3233 53.7648C87.5109 53.9111 87.6656 54.1056 87.7876 54.3481C87.873 54.0899 87.9584 53.8064 88.0437 53.4975C88.1492 53.1785 88.2471 52.857 88.3374 52.533C88.4278 52.2089 88.5029 51.9052 88.563 51.6217C88.6433 51.3281 88.7009 51.0775 88.7358 50.8699C88.7808 50.632 88.7349 50.4652 88.598 50.3694C88.4814 50.2634 88.3042 50.2132 88.0664 50.2188C87.6616 50.2197 87.1584 50.3145 86.5568 50.5031C85.9551 50.6917 85.3687 50.9107 84.7975 51.1599C84.6156 51.2514 84.436 51.2594 84.2587 51.1839C84.0967 51.1135 83.975 50.9974 83.8936 50.8357C83.8123 50.674 83.7892 50.5146 83.8242 50.3577C83.8643 50.1856 83.9828 50.031 84.1798 49.8939C84.5285 49.7059 84.9101 49.5203 85.3246 49.3372C85.739 49.1541 86.1586 49.0064 86.5834 48.8941C87.0132 48.7666 87.4355 48.6872 87.8503 48.6559C88.2651 48.6245 88.6573 48.6616 89.0269 48.767C89.5636 48.9276 89.9336 49.1848 90.1368 49.5385C90.345 49.877 90.4142 50.2538 90.3443 50.6689ZM86.0808 54.6936C85.8682 54.6739 85.6229 54.7023 85.3448 54.7788C85.0869 54.8452 84.8317 54.9546 84.579 55.107C84.3466 55.2492 84.1421 55.4343 83.9656 55.6624C83.8092 55.8804 83.7289 56.1234 83.7244 56.3916C83.7247 56.4928 83.7628 56.5812 83.8389 56.6569C83.9301 56.7377 84.0416 56.783 84.1731 56.7928C84.5628 56.8374 85.0207 56.8287 85.5468 56.7668C86.093 56.6947 86.5456 56.5747 86.9044 56.4069C86.9346 56.3158 86.9267 56.1868 86.8808 56.0199C86.8399 55.8379 86.7813 55.6584 86.705 55.4815C86.6337 55.2894 86.5397 55.115 86.4229 54.9585C86.3214 54.8069 86.2073 54.7186 86.0808 54.6936Z" fill="#FF640A"/>
<path d="M80.518 47.9497C80.9185 48.2675 81.2153 48.6438 81.4086 49.0784C81.6171 49.5182 81.7345 49.9783 81.7609 50.4589C81.7924 50.9243 81.7428 51.3798 81.6123 51.8254C81.497 52.2759 81.3158 52.671 81.0686 53.0106C80.7609 53.3807 80.41 53.7281 80.0161 54.0528C79.6222 54.3775 79.2054 54.6441 78.7657 54.8526C78.326 55.0611 77.8608 55.1937 77.3702 55.2505C76.8795 55.3073 76.376 55.2503 75.8595 55.0795C75.2367 54.8735 74.7603 54.5558 74.4304 54.1265C74.1006 53.6972 73.8895 53.2145 73.7971 52.6784C73.7048 52.1423 73.7161 51.573 73.8311 50.9707C73.9613 50.3733 74.1674 49.8011 74.4495 49.254C74.6509 48.8488 74.8853 48.4713 75.1526 48.1215C75.4402 47.7616 75.7482 47.4675 76.0765 47.239C76.4099 46.9954 76.7535 46.8226 77.1075 46.7205C77.4766 46.6235 77.851 46.6378 78.2308 46.7635C78.4435 46.8338 78.6943 46.9673 78.9831 47.1639C79.277 47.3454 79.5355 47.5573 79.7587 47.7997C80.0165 47.6827 80.2696 47.7327 80.518 47.9497ZM79.102 49.3267C78.9701 49.1651 78.8178 48.963 78.6452 48.7206C78.4928 48.468 78.3331 48.314 78.166 48.2587C77.9837 48.1984 77.7738 48.2217 77.5362 48.3285C77.3139 48.4403 77.0966 48.5876 76.8846 48.7702C76.6927 48.9427 76.5135 49.1278 76.347 49.3255C76.1805 49.5232 76.0594 49.6854 75.9838 49.8121C75.8629 50.0249 75.7421 50.2882 75.6214 50.6022C75.5007 50.9162 75.418 51.2427 75.3732 51.5818C75.3335 51.9058 75.3545 52.2245 75.4361 52.538C75.538 52.8413 75.7461 53.1039 76.0603 53.3258C76.2529 53.4569 76.5035 53.5398 76.8123 53.5745C77.126 53.594 77.4497 53.5579 77.7835 53.466C78.1324 53.3792 78.4786 53.2241 78.8221 53.0006C79.1809 52.7822 79.4939 52.4982 79.7612 52.1484C80.0589 51.7581 80.2096 51.3024 80.2134 50.7813C80.2375 50.25 80.0644 49.8051 79.6942 49.4467C79.5628 49.4875 79.4439 49.4903 79.3376 49.4552C79.2312 49.42 79.1527 49.3772 79.102 49.3267Z" fill="#FF640A"/>
<path d="M70.1658 40.5064C70.1006 40.7544 70.0102 41.0532 69.8946 41.4026C69.7943 41.757 69.6838 42.1418 69.5634 42.5569C69.4429 42.9721 69.3275 43.3974 69.2172 43.8328C69.112 44.253 69.0269 44.663 68.9621 45.0629C69.3155 44.7585 69.6692 44.5553 70.0232 44.4532C70.3923 44.3562 70.7363 44.3352 71.0552 44.3901C71.5462 44.4851 71.9388 44.6739 72.2329 44.9566C72.527 45.2392 72.7377 45.5702 72.8651 45.9493C72.9975 46.3133 73.0566 46.6952 73.0423 47.0949C73.0331 47.4795 72.9732 47.8389 72.8627 48.1731C72.6266 48.887 72.2181 49.485 71.6374 49.967C71.0718 50.4541 70.4605 50.8502 69.8035 51.1553C69.1616 51.4654 68.5449 51.6996 67.9533 51.8578C67.3769 52.0211 66.9597 52.1359 66.7018 52.2022C66.3578 52.2233 66.0515 52.1557 65.783 51.9995C65.5145 51.8432 65.3548 51.6893 65.3038 51.5376C65.2881 51.3302 65.3156 51.1708 65.3862 51.0593C65.4618 50.9326 65.5627 50.8312 65.6891 50.755C65.8154 50.6788 65.9518 50.6228 66.0985 50.5871C66.2654 50.5412 66.4069 50.4953 66.5232 50.4495C66.7113 48.6579 66.988 46.8788 67.3532 45.1121C67.7235 43.3303 68.2152 41.5633 68.8284 39.8113C68.9289 39.5074 69.0474 39.3528 69.184 39.3475C69.3358 39.3471 69.4573 39.362 69.5484 39.3922C69.751 39.4929 69.9133 39.6392 70.0352 39.8312C70.1571 40.0232 70.2006 40.2482 70.1658 40.5064ZM71.4954 47.645C71.6662 47.1285 71.6551 46.7288 71.4622 46.4459C71.2743 46.1478 71.0386 45.9688 70.7551 45.9087C70.5172 45.8637 70.2845 45.8795 70.057 45.9559C69.8295 46.0323 69.6147 46.1466 69.4127 46.2989C69.2107 46.4512 69.0315 46.6363 68.8752 46.8542C68.734 47.0771 68.6333 47.3051 68.5732 47.5379C68.4779 47.9278 68.3803 48.3505 68.2801 48.8061C68.1952 49.2667 68.1329 49.6843 68.0933 50.0588C68.3916 49.9721 68.7127 49.8676 69.0564 49.7454C69.4052 49.6079 69.7388 49.4402 70.0571 49.2421C70.3906 49.0491 70.6835 48.8258 70.9359 48.5722C71.1933 48.3034 71.3798 47.9944 71.4954 47.645Z" fill="#FF640A"/>
<path d="M52.8718 39.286C52.842 39.5289 52.8021 39.8022 52.7522 40.1059C52.7226 40.3995 52.6879 40.7082 52.6481 41.0321C52.6134 41.3408 52.5686 41.6546 52.5137 41.9735C52.4588 42.2924 52.4013 42.5936 52.3413 42.8771C52.6542 42.5424 52.9898 42.19 53.3482 41.8198C53.7066 41.4496 54.0676 41.1224 54.4312 40.8382C54.8151 40.5439 55.1839 40.3204 55.5377 40.1678C55.9067 40.0202 56.2583 40.0016 56.5925 40.1122C57.0938 40.278 57.4513 40.5984 57.6649 41.0735C57.8937 41.5537 58.0316 42.1049 58.0786 42.7271C58.1458 43.3392 58.1498 43.964 58.0905 44.6017C58.0313 45.2393 57.9719 45.8011 57.9123 46.287C57.8678 46.7272 57.585 46.9708 57.064 47.0175C56.8161 47.0535 56.6516 47.0159 56.5704 46.9048C56.4892 46.7937 56.4535 46.6976 56.4635 46.6167C56.4478 46.4093 56.4546 46.0576 56.4838 45.5617C56.5282 45.0708 56.5523 44.5648 56.5561 44.0436C56.5752 43.5275 56.5513 43.0646 56.4846 42.6549C56.4179 42.2452 56.2656 42.0179 56.0277 41.9729C55.7492 41.8977 55.4383 42.0224 55.095 42.347C54.8072 42.6057 54.4993 42.8999 54.1712 43.2295C53.8633 43.549 53.5503 43.8836 53.2324 44.2335C52.9195 44.5682 52.604 44.9104 52.2861 45.2603C51.9884 45.6 51.7083 45.9118 51.4458 46.1957C51.3043 46.2669 51.1425 46.2976 50.9603 46.2879C50.7984 46.2681 50.6439 46.2001 50.4969 46.0841C50.3601 45.9883 50.2637 45.8721 50.2077 45.7357C50.1517 45.5992 50.1413 45.4778 50.1765 45.3714C50.4317 44.1414 50.6441 43.0151 50.8137 41.9926C50.9986 40.9752 51.1454 39.9199 51.2541 38.8268C51.2634 38.4422 51.331 38.1613 51.4571 37.9839C51.6034 37.7963 51.8589 37.7882 52.2236 37.9593C52.7251 38.2263 52.9412 38.6686 52.8718 39.286Z" fill="#FF640A"/>
<path d="M44.2609 44.1985C44.0842 44.3254 43.9098 44.3941 43.7378 44.4047C43.5708 44.4 43.4265 44.3776 43.305 44.3374C43.0973 44.2518 42.9225 44.1182 42.7804 43.9363C42.6433 43.7393 42.5746 43.5649 42.5743 43.4131C42.5685 43.1248 42.5652 42.8035 42.5644 42.4493C42.5636 42.0951 42.5628 41.741 42.5619 41.3868C42.5813 41.0224 42.5881 40.6708 42.5823 40.3318C42.5814 39.9776 42.5782 39.6563 42.5724 39.368C42.0928 39.7991 41.6258 40.2429 41.1715 40.6994C40.7222 41.1406 40.235 41.5946 39.7099 42.0613C39.4826 42.2389 39.2552 42.3406 39.0275 42.3665C38.8049 42.3771 38.6278 42.3522 38.4961 42.2918C38.3036 42.2113 38.1465 42.0751 38.0246 41.8831C37.9179 41.6961 37.8391 41.5268 37.7881 41.3751C37.7115 41.0464 37.6599 40.6418 37.6335 40.1612C37.6121 39.6654 37.6034 39.1569 37.6072 38.6357C37.6313 38.1044 37.6604 37.5832 37.6946 37.0721C37.7339 36.5458 37.7783 36.0802 37.828 35.6753C37.8678 35.402 37.9482 35.159 38.0692 34.9462C38.2053 34.7384 38.3847 34.6545 38.6074 34.6945C38.8707 34.7647 39.076 34.9337 39.2234 35.2015C39.3757 35.4542 39.437 35.6766 39.4071 35.869C39.3673 36.1929 39.3252 36.5497 39.2805 36.9394C39.2561 37.3189 39.2292 37.706 39.1997 38.1008C39.1855 38.5005 39.1662 38.8902 39.1418 39.2697C39.1325 39.6542 39.1359 40.0008 39.1518 40.3094C39.5002 40.0202 39.889 39.6854 40.3182 39.3049C40.7676 38.9143 41.1943 38.5414 41.5982 38.1863C42.0072 37.816 42.3733 37.4989 42.6965 37.235C43.0197 36.9712 43.2546 36.8214 43.4013 36.7856C43.5125 36.755 43.6391 36.8053 43.7811 36.9365C43.9281 37.0525 44.0195 37.1839 44.0552 37.3305C44.1684 38.1094 44.1981 38.9366 44.1445 39.8121C44.1111 40.6774 44.0877 41.487 44.0742 42.2409C44.3773 42.0378 44.7233 41.7562 45.112 41.396C45.5058 41.0207 45.8995 40.6201 46.2932 40.1941C46.6869 39.7682 47.0653 39.3373 47.4286 38.9013C47.7919 38.4653 48.0996 38.0699 48.3518 37.7152C48.609 37.3452 48.8414 37.203 49.049 37.2885C49.3124 37.4094 49.5177 37.5784 49.6649 37.7956C49.8122 38.0128 49.8354 38.1974 49.7345 38.3495C48.9582 39.5757 48.1183 40.663 47.2148 41.6112C46.3164 42.5443 45.3318 43.4067 44.2609 44.1985Z" fill="#FF640A"/>
<path d="M34.6345 32.7737C35.0349 33.0916 35.3318 33.4678 35.5251 33.9025C35.7336 34.3422 35.851 34.8023 35.8774 35.283C35.9089 35.7484 35.8593 36.2039 35.7288 36.6494C35.6135 37.1 35.4323 37.4951 35.1851 37.8346C34.8773 38.2047 34.5265 38.5521 34.1326 38.8768C33.7387 39.2016 33.3219 39.4682 32.8822 39.6766C32.4425 39.8851 31.9773 40.0177 31.4867 40.0745C30.996 40.1313 30.4924 40.0743 29.976 39.9035C29.3531 39.6975 28.8768 39.3799 28.5469 38.9506C28.217 38.5213 28.0059 38.0385 27.9136 37.5024C27.8213 36.9663 27.8326 36.3971 27.9476 35.7947C28.0778 35.1974 28.2839 34.6252 28.5659 34.0781C28.7674 33.6728 29.0018 33.2953 29.2691 32.9456C29.5567 32.5857 29.8646 32.2915 30.193 32.0631C30.5264 31.8194 30.87 31.6466 31.2239 31.5446C31.5931 31.4476 31.9675 31.4619 32.3473 31.5875C32.56 31.6578 32.8107 31.7913 33.0996 31.988C33.3935 32.1695 33.652 32.3814 33.8752 32.6237C34.133 32.5067 34.3861 32.5567 34.6345 32.7737ZM33.2185 34.1507C33.0865 33.9891 32.9343 33.7871 32.7617 33.5446C32.6093 33.292 32.4496 33.138 32.2825 33.0828C32.1002 33.0225 31.8903 33.0457 31.6527 33.1525C31.4303 33.2644 31.2131 33.4116 31.001 33.5943C30.8092 33.7667 30.63 33.9518 30.4635 34.1495C30.297 34.3473 30.1759 34.5094 30.1003 34.6361C29.9794 34.8489 29.8586 35.1123 29.7379 35.4263C29.6172 35.7402 29.5344 36.0668 29.4897 36.4059C29.45 36.7298 29.4709 37.0485 29.5526 37.362C29.6545 37.6654 29.8626 37.928 30.1768 38.1499C30.3694 38.281 30.62 38.3639 30.9287 38.3986C31.2425 38.4181 31.5662 38.3819 31.8999 38.2901C32.2488 38.2032 32.5951 38.0481 32.9386 37.8247C33.2973 37.6063 33.6104 37.3222 33.8777 36.9725C34.1753 36.5822 34.3261 36.1265 34.3299 35.6053C34.354 35.074 34.1809 34.6291 33.8107 34.2708C33.6793 34.3116 33.5604 34.3144 33.454 34.2792C33.3477 34.244 33.2692 34.2012 33.2185 34.1507Z" fill="#FF640A"/>
<path d="M120.175 29.5688C119.851 29.6303 119.51 29.6943 119.15 29.761C118.807 29.8326 118.445 29.9321 118.066 30.0595C117.707 30.1767 117.34 30.342 116.967 30.5553C116.613 30.7586 116.262 31.0301 115.913 31.3699C115.419 31.8466 115.018 32.3712 114.71 32.9437C114.408 33.501 114.146 34.0632 113.925 34.6304C113.835 34.9038 113.673 35.1622 113.441 35.4056C113.229 35.6389 113.009 35.7178 112.781 35.6425C112.493 35.547 112.305 35.3248 112.218 34.9759C112.152 34.6168 112.133 34.2905 112.163 33.997C112.261 32.833 112.4 31.6993 112.58 30.5959C112.764 29.4773 112.969 28.3738 113.195 27.2855C113.265 27.0728 113.371 26.9562 113.512 26.9356C113.669 26.9201 113.829 26.9475 113.991 27.018C114.168 27.0935 114.328 27.1968 114.47 27.328C114.612 27.4593 114.67 27.6134 114.645 27.7906C114.52 28.3727 114.4 28.9903 114.285 29.6433C114.175 30.281 114.093 30.8353 114.039 31.3059C114.27 30.8095 114.603 30.3635 115.037 29.9679C115.472 29.5722 115.952 29.2422 116.477 28.9779C117.018 28.7186 117.584 28.5351 118.176 28.4275C118.783 28.3249 119.367 28.3159 119.929 28.4006C120.167 28.4456 120.357 28.5084 120.499 28.589C120.641 28.6697 120.729 28.758 120.765 28.8541C120.801 28.9501 120.768 29.0741 120.667 29.2262C120.581 29.3832 120.417 29.4974 120.175 29.5688Z" fill="#FF640A"/>
<path d="M105.606 25.989C105.379 26.369 105.137 26.7945 104.88 27.2657C104.629 27.7216 104.404 28.1699 104.208 28.6106C104.027 29.0563 103.891 29.4664 103.801 29.841C103.726 30.2207 103.739 30.5116 103.841 30.7137C104.084 30.8447 104.416 30.8364 104.835 30.6886C105.26 30.5257 105.7 30.292 106.154 29.9873C106.609 29.6827 107.043 29.3376 107.457 28.9521C107.876 28.5515 108.199 28.1864 108.426 27.857C108.547 27.6948 108.663 27.5225 108.774 27.3401C108.885 27.1577 108.976 26.9602 109.046 26.7475C109.086 26.626 109.2 26.5372 109.387 26.4811C109.594 26.4148 109.753 26.3917 109.865 26.4116C109.946 26.4216 110.024 26.4644 110.1 26.5401C110.192 26.6209 110.26 26.7194 110.306 26.8356C110.372 26.9417 110.415 27.0656 110.436 27.2072C110.477 27.3387 110.477 27.4652 110.437 27.5867C110.316 28.0525 110.196 28.5688 110.076 29.1358C109.956 29.7027 109.843 30.2722 109.738 30.8442C109.649 31.4212 109.564 31.983 109.484 32.5297C109.405 33.0763 109.343 33.5698 109.298 34.01C109.288 34.1922 109.18 34.367 108.973 34.5345C108.766 34.7019 108.571 34.7808 108.389 34.7711C108.242 34.7563 108.103 34.6933 107.971 34.5823C107.855 34.4764 107.788 34.3197 107.773 34.1123C107.767 33.8745 107.777 33.5911 107.801 33.2622C107.846 32.9231 107.893 32.5764 107.943 32.2221C108.013 31.8576 108.075 31.5159 108.13 31.1971C108.19 30.863 108.248 30.5871 108.303 30.3694C107.939 30.7042 107.528 31.0315 107.068 31.3513C106.629 31.661 106.169 31.9302 105.689 32.159C105.229 32.3777 104.769 32.5204 104.308 32.5872C103.868 32.6439 103.451 32.5816 103.056 32.4004C102.473 32.1235 102.198 31.4006 102.231 30.2317C102.25 29.7662 102.345 29.2752 102.516 28.7587C102.702 28.2473 102.908 27.7509 103.135 27.2697C103.382 26.7784 103.626 26.3199 103.868 25.8943C104.125 25.4738 104.339 25.1318 104.511 24.8683C104.581 24.7568 104.677 24.6705 104.798 24.6096C104.925 24.5334 105.044 24.5306 105.155 24.6011C105.368 24.7221 105.528 24.9266 105.635 25.2148C105.757 25.5079 105.747 25.766 105.606 25.989Z" fill="#FF640A"/>
<path d="M100.074 22.8196C100.475 23.1374 100.772 23.5137 100.965 23.9483C101.173 24.3881 101.291 24.8482 101.317 25.3288C101.349 25.7942 101.299 26.2497 101.169 26.6953C101.053 27.1458 100.872 27.5409 100.625 27.8805C100.317 28.2506 99.9664 28.598 99.5725 28.9227C99.1786 29.2474 98.7618 29.514 98.3221 29.7225C97.8824 29.931 97.4172 30.0636 96.9265 30.1204C96.4359 30.1772 95.9323 30.1202 95.4158 29.9494C94.793 29.7434 94.3167 29.4257 93.9868 28.9964C93.6569 28.5671 93.4458 28.0844 93.3535 27.5483C93.2612 27.0122 93.2725 26.443 93.3875 25.8406C93.5176 25.2432 93.7237 24.671 94.0058 24.1239C94.2072 23.7187 94.4416 23.3412 94.709 22.9915C94.9966 22.6315 95.3045 22.3374 95.6329 22.1089C95.9662 21.8653 96.3099 21.6925 96.6638 21.5904C97.0329 21.4934 97.4074 21.5078 97.7872 21.6334C97.9998 21.7037 98.2506 21.8372 98.5395 22.0339C98.8333 22.2153 99.0919 22.4272 99.3151 22.6696C99.5728 22.5526 99.8259 22.6026 100.074 22.8196ZM98.6583 24.1966C98.5264 24.035 98.3741 23.8329 98.2016 23.5905C98.0492 23.3379 97.8894 23.1839 97.7223 23.1286C97.5401 23.0683 97.3301 23.0916 97.0926 23.1984C96.8702 23.3102 96.653 23.4575 96.4409 23.6401C96.249 23.8126 96.0699 23.9977 95.9033 24.1954C95.7368 24.3931 95.6158 24.5553 95.5402 24.682C95.4192 24.8948 95.2984 25.1581 95.1777 25.4721C95.057 25.7861 94.9743 26.1126 94.9296 26.4517C94.8898 26.7757 94.9108 27.0944 94.9925 27.4079C95.0944 27.7112 95.3024 27.9738 95.6167 28.1957C95.8092 28.3268 96.0599 28.4097 96.3686 28.4444C96.6823 28.4639 97.0061 28.4278 97.3398 28.3359C97.6887 28.2491 98.0349 28.094 98.3785 27.8705C98.7372 27.6521 99.0502 27.3681 99.3176 27.0183C99.6152 26.628 99.7659 26.1723 99.7698 25.6512C99.7938 25.1199 99.6208 24.675 99.2506 24.3166C99.1191 24.3574 99.0002 24.3602 98.8939 24.3251C98.7876 24.2899 98.709 24.2471 98.6583 24.1966Z" fill="#FF640A"/>
<path d="M92.3842 21.1355C92.1584 21.9709 91.9302 22.8139 91.6994 23.6644C91.4839 24.52 91.2252 25.3529 90.9235 26.1632C90.6269 26.9582 90.282 27.7205 89.8891 28.45C89.5113 29.1846 89.0525 29.8586 88.5125 30.472C87.9776 31.0703 87.3514 31.5879 86.6339 32.0247C85.9317 32.4665 85.1128 32.8023 84.1773 33.0322C84.0306 33.0679 83.8788 33.0683 83.7219 33.0332C83.5802 33.0032 83.446 32.9504 83.3193 32.8748C83.1876 32.8144 83.0786 32.7362 82.9924 32.6403C82.9011 32.5596 82.8554 32.4686 82.8552 32.3674C82.8548 32.2156 82.9278 32.0712 83.0742 31.9343C83.2207 31.7973 83.4303 31.6729 83.7033 31.5609C84.5375 31.2807 85.2754 30.9349 85.917 30.5236C86.5586 30.1123 87.1242 29.6252 87.6137 29.0625C88.1031 28.4997 88.5115 27.8511 88.8386 27.1167C89.186 26.3721 89.4649 25.5291 89.6752 24.5875C89.4175 24.755 89.127 24.9202 88.8035 25.0828C88.4801 25.2455 88.149 25.3803 87.8103 25.4874C87.4765 25.5792 87.1428 25.6458 86.8089 25.687C86.4801 25.7131 86.1866 25.6834 85.9283 25.598C85.7157 25.5277 85.5181 25.4118 85.3355 25.2503C85.153 25.0888 84.9981 24.8438 84.8709 24.5152C84.7333 24.1158 84.6311 23.6859 84.5643 23.2257C84.5177 22.7552 84.4888 22.3075 84.4777 21.8825C84.4666 21.4575 84.4657 21.0781 84.475 20.7441C84.4996 20.4152 84.5243 20.1874 84.5493 20.0609C84.5692 19.8989 84.6169 19.7546 84.6925 19.628C84.7681 19.5013 84.8945 19.4504 85.0716 19.4753C85.3146 19.5051 85.5222 19.5906 85.6946 19.7319C85.8669 19.8731 85.9635 20.0399 85.9841 20.2321C85.9896 20.4193 85.9878 20.7052 85.9785 21.0897C85.9693 21.4743 85.9829 21.8664 86.0192 22.266C86.0606 22.6504 86.1221 22.9994 86.2038 23.3129C86.3007 23.6315 86.4479 23.8234 86.6454 23.8887C86.8732 23.9641 87.1767 23.9381 87.5559 23.8107C87.9503 23.6883 88.3521 23.4926 88.7613 23.2235C89.1705 22.9544 89.5467 22.6322 89.8899 22.257C90.2532 21.8716 90.5053 21.4663 90.646 21.0409C90.6761 20.9498 90.7265 20.8485 90.7971 20.737C90.8676 20.6255 90.9509 20.5267 91.0468 20.4404C91.1478 20.339 91.2488 20.2629 91.3499 20.212C91.4712 20.151 91.5799 20.128 91.6761 20.143C91.9292 20.193 92.1192 20.3317 92.2462 20.5591C92.3935 20.7763 92.4395 20.9684 92.3842 21.1355Z" fill="#FF640A"/>
<path d="M75.8571 17.6915C75.1491 17.8449 74.4206 17.9073 73.6717 17.8787C72.9278 17.8349 72.161 17.6824 71.371 17.4211C71.2256 17.9628 71.2368 18.4384 71.4047 18.8479C71.5777 19.2421 71.8592 19.5375 72.2492 19.7339C72.4822 19.8446 72.7278 19.9174 72.9859 19.9523C73.2592 19.9921 73.5173 20.0016 73.7601 19.9808C74.0231 19.9498 74.2659 19.9037 74.4884 19.8425C74.7108 19.7813 74.9105 19.7125 75.0875 19.6362C75.2644 19.5599 75.4338 19.5317 75.5958 19.5515C75.7627 19.5562 75.8792 19.5863 75.9451 19.6418C76.1326 19.7881 76.1332 20.0411 75.9468 20.4007C75.543 20.8064 75.0555 21.1086 74.4842 21.3073C73.9179 21.4908 73.3387 21.5351 72.7465 21.4404C72.2303 21.3707 71.7365 21.1821 71.2652 20.8746C70.794 20.567 70.4186 20.148 70.1391 19.6174C69.9052 19.1524 69.7751 18.6543 69.7485 18.1231C69.722 17.5919 69.7688 17.0681 69.8891 16.5518C69.9992 16.0658 70.1854 15.6302 70.4476 15.2451C70.725 14.865 71.0532 14.5606 71.4322 14.3321C71.8161 14.0883 72.2483 13.9279 72.7288 13.8509C73.2093 13.7739 73.728 13.8106 74.2849 13.9611C74.9532 14.1316 75.5055 14.4491 75.9417 14.9135C76.3779 15.378 76.6169 15.9037 76.6587 16.4905C76.6848 16.8193 76.6323 17.08 76.5012 17.2726C76.3853 17.4702 76.1706 17.6098 75.8571 17.6915ZM73.7491 15.2754C73.5872 15.2555 73.4025 15.2534 73.1951 15.2691C73.0029 15.2897 72.8107 15.3357 72.6186 15.407C72.4467 15.4681 72.2749 15.5545 72.1031 15.6662C71.9516 15.7678 71.8381 15.9072 71.7626 16.0845C72.0208 16.1699 72.3094 16.24 72.6283 16.295C72.9623 16.3549 73.2837 16.4022 73.5925 16.4369C73.9214 16.4614 74.2225 16.4683 74.4957 16.4576C74.784 16.4518 75.0294 16.4234 75.2316 16.3724C75.2056 16.0436 75.0355 15.7935 74.7214 15.6222C74.4275 15.4407 74.1034 15.3251 73.7491 15.2754Z" fill="#FF640A"/>
<path d="M66.4627 13.7501C66.7563 13.8304 67.0223 13.9942 67.2607 14.2416C67.4991 14.4889 67.5655 14.7721 67.46 15.0911C67.3442 15.3393 67.1446 15.4587 66.8613 15.4492C66.5981 15.4296 66.3906 15.3947 66.2387 15.3444C65.9349 15.2439 65.6058 15.1435 65.2513 15.0431C64.8969 14.9428 64.5324 14.8475 64.1578 14.7573C63.9616 15.2485 63.7755 15.7094 63.5994 16.1399C63.4385 16.5754 63.2927 16.9653 63.1619 17.3097C63.0362 17.6388 62.9382 17.9098 62.8678 18.1224C62.7975 18.3351 62.7674 18.4515 62.7776 18.4718C63.1319 18.5215 63.5215 18.5409 63.9465 18.5297C64.3917 18.5085 64.8318 18.4771 65.2668 18.4356C65.7221 18.3839 66.1621 18.3273 66.587 18.2656C67.0321 18.1937 67.4494 18.1295 67.8388 18.0729C68.0158 18.0472 68.1601 18.0696 68.2716 18.1402C68.3982 18.2158 68.4592 18.3118 68.4544 18.4282C68.4295 18.6053 68.3389 18.8029 68.1826 19.0208C68.0262 19.2387 67.8166 19.4138 67.5538 19.5459C67.2657 19.6529 66.8915 19.765 66.4314 19.8825C65.9914 19.9898 65.5236 20.0794 65.028 20.1514C64.5323 20.2234 64.0365 20.2701 63.5407 20.2915C63.0652 20.3027 62.6553 20.2682 62.311 20.1881C61.7946 20.0678 61.4601 19.8055 61.3074 19.4011C61.1546 18.9967 61.1435 18.5464 61.2739 18.0502C61.4043 17.5541 61.5826 16.9895 61.8088 16.3565C62.0502 15.7286 62.3041 15.0626 62.5707 14.3587C62.272 14.2936 61.9809 14.2311 61.6974 14.171C61.4342 14.1008 61.176 14.0407 60.9229 13.9907C60.7254 13.9254 60.5202 13.8069 60.3073 13.6354C60.1096 13.4689 60.0534 13.2565 60.1389 12.9983C60.169 12.9071 60.2472 12.7982 60.3734 12.6714C60.4996 12.5446 60.7044 12.4859 60.9877 12.4954C61.6457 12.5951 62.367 12.7325 63.1517 12.9078C63.4334 12.2089 63.7152 11.5353 63.997 10.887C64.2788 10.2387 64.533 9.64868 64.7594 9.11689C64.8349 8.93963 64.9408 8.79771 65.0772 8.69114C65.2135 8.58457 65.3349 8.54887 65.4412 8.58404C65.7045 8.65426 65.9249 8.80301 66.1026 9.03028C66.3004 9.24739 66.3692 9.44708 66.3089 9.62937C66.0773 10.1258 65.8231 10.6905 65.5463 11.3236C65.2847 11.9617 65.018 12.615 64.7463 13.2835C65.0602 13.3537 65.3539 13.4339 65.6273 13.5244C65.9209 13.6046 66.1994 13.6799 66.4627 13.7501Z" fill="#FF640A"/>
<path d="M59.5667 8.89086C59.4868 9.33629 59.3817 9.80709 59.2513 10.3032C59.1411 10.7892 59.0132 11.2778 58.8676 11.7689C58.7372 12.265 58.5966 12.741 58.4459 13.1967C58.2952 13.6524 58.1519 14.0601 58.0162 14.4196C58.3917 14.9146 58.5824 15.3063 58.5881 15.5947C58.609 15.8881 58.5489 16.1209 58.4076 16.2933C58.226 16.5366 58.0112 16.6256 57.7631 16.5604C57.5352 16.4851 57.297 16.3136 57.0485 16.046C56.7856 16.1276 56.4873 16.2143 56.1535 16.3061C55.8248 16.3828 55.4809 16.4544 55.1219 16.521C54.7678 16.5725 54.4188 16.6087 54.0748 16.6297C53.7308 16.6508 53.4221 16.6414 53.1488 16.6015C52.6376 16.5167 52.2272 16.2799 51.9176 15.891C51.6233 15.5071 51.4932 15.0344 51.5273 14.4727C51.5517 14.0931 51.647 13.7286 51.8131 13.3791C51.9843 13.0144 52.2163 12.6951 52.5091 12.4212C52.807 12.1321 53.153 11.9011 53.5473 11.7282C53.9567 11.5602 54.3992 11.4707 54.8748 11.4594C54.9962 11.449 55.1531 11.4588 55.3454 11.4887C55.553 11.5236 55.7529 11.5814 55.9454 11.6619C56.1581 11.7322 56.3582 11.8405 56.5457 11.9868C56.7333 12.1331 56.888 12.3275 57.01 12.5701C57.0955 12.3119 57.1808 12.0283 57.2661 11.7195C57.3716 11.4005 57.4695 11.079 57.5599 10.7549C57.6502 10.4309 57.7254 10.1272 57.7854 9.84369C57.8657 9.55004 57.9233 9.29945 57.9582 9.09193C58.0032 8.85402 57.9573 8.68715 57.8205 8.59134C57.7038 8.48536 57.5266 8.43517 57.2888 8.44079C56.8841 8.44173 56.3809 8.5365 55.7792 8.72511C55.1775 8.91372 54.5911 9.13265 54.02 9.3819C53.838 9.4734 53.6584 9.48141 53.4812 9.40592C53.3191 9.33547 53.1974 9.21938 53.1161 9.05766C53.0347 8.89594 53.0116 8.73661 53.0466 8.57968C53.0867 8.40756 53.2053 8.25296 53.4023 8.1159C53.7509 7.92788 54.1325 7.74231 54.547 7.5592C54.9614 7.37609 55.3811 7.22838 55.8058 7.11608C56.2356 6.98859 56.6579 6.90918 57.0727 6.87786C57.4875 6.84653 57.8797 6.88357 58.2493 6.98896C58.786 7.14962 59.156 7.4068 59.3592 7.7605C59.5674 8.09902 59.6366 8.4758 59.5667 8.89086ZM55.3032 12.9156C55.0907 12.8959 54.8453 12.9243 54.5672 13.0008C54.3093 13.0672 54.0541 13.1766 53.8015 13.3289C53.569 13.4712 53.3646 13.6563 53.188 13.8844C53.0317 14.1023 52.9513 14.3454 52.9468 14.6136C52.9471 14.7147 52.9852 14.8032 53.0613 14.8789C53.1526 14.9597 53.264 15.0049 53.3955 15.0148C53.7852 15.0594 54.2431 15.0507 54.7692 14.9888C55.3155 14.9167 55.768 14.7967 56.1269 14.6289C56.157 14.5378 56.1491 14.4088 56.1032 14.2419C56.0623 14.0599 56.0037 13.8804 55.9274 13.7035C55.8561 13.5114 55.7621 13.337 55.6454 13.1805C55.5438 13.0289 55.4298 12.9406 55.3032 12.9156Z" fill="#FF640A"/>
<path d="M50.3786 9.2645C49.6706 9.41793 48.9421 9.48035 48.1932 9.45173C47.4494 9.40792 46.6825 9.25539 45.8926 8.99413C45.7471 9.53585 45.7583 10.0114 45.9262 10.4209C46.0992 10.8151 46.3807 11.1105 46.7707 11.3069C47.0037 11.4176 47.2493 11.4904 47.5074 11.5253C47.7807 11.5651 48.0388 11.5746 48.2816 11.5538C48.5446 11.5228 48.7874 11.4767 49.0099 11.4155C49.2324 11.3543 49.4321 11.2855 49.609 11.2092C49.7859 11.1329 49.9553 11.1047 50.1173 11.1245C50.2842 11.1292 50.4007 11.1593 50.4666 11.2148C50.6541 11.3611 50.6547 11.6141 50.4684 11.9737C50.0645 12.3794 49.577 12.6816 49.0057 12.8803C48.4394 13.0638 47.8602 13.1081 47.268 13.0134C46.7518 12.9437 46.258 12.7551 45.7867 12.4476C45.3155 12.14 44.9401 11.721 44.6606 11.1904C44.4268 10.7254 44.2966 10.2273 44.27 9.69613C44.2435 9.16493 44.2903 8.64115 44.4106 8.12478C44.5208 7.6388 44.707 7.20324 44.9692 6.81809C45.2466 6.43797 45.5747 6.13363 45.9537 5.90506C46.3376 5.66131 46.7699 5.50092 47.2504 5.42391C47.7308 5.34689 48.2495 5.38363 48.8065 5.53413C49.4747 5.7046 50.027 6.02207 50.4632 6.48655C50.8994 6.95102 51.1384 7.47667 51.1803 8.06349C51.2063 8.39231 51.1538 8.653 51.0227 8.84558C50.9068 9.04317 50.6921 9.18281 50.3786 9.2645ZM48.2707 6.84836C48.1087 6.82849 47.924 6.82639 47.7166 6.84206C47.5244 6.86274 47.3322 6.90873 47.1401 6.98001C46.9682 7.04112 46.7964 7.12754 46.6247 7.23925C46.4731 7.3408 46.3596 7.4802 46.2841 7.65746C46.5423 7.74288 46.8309 7.81304 47.1498 7.86796C47.4839 7.92789 47.8053 7.97521 48.114 8.00991C48.4429 8.03444 48.744 8.04133 49.0172 8.03058C49.3056 8.02485 49.5509 7.99645 49.7532 7.94538C49.7271 7.61657 49.557 7.36651 49.2429 7.19521C48.949 7.01375 48.625 6.89813 48.2707 6.84836Z" fill="#FF640A"/>
<path d="M44.3177 4.4792C43.994 4.54067 43.6526 4.60471 43.2935 4.67132C42.9496 4.74296 42.5881 4.84246 42.2089 4.96983C41.85 5.08704 41.4835 5.25233 41.1096 5.46571C40.7559 5.66892 40.4049 5.94043 40.0566 6.28024C39.5618 6.75699 39.1608 7.2816 38.8535 7.85406C38.5512 8.41132 38.2894 8.97355 38.0681 9.54075C37.9777 9.81418 37.8164 10.0726 37.5842 10.316C37.3722 10.5492 37.1523 10.6282 36.9245 10.5528C36.6358 10.4574 36.4481 10.2352 36.3613 9.88625C36.2947 9.52717 36.2762 9.20087 36.3059 8.90734C36.4044 7.74339 36.5434 6.6097 36.723 5.50628C36.9076 4.38766 37.1125 3.28418 37.3376 2.19583C37.408 1.98316 37.5139 1.86654 37.6556 1.84597C37.8124 1.83043 37.9718 1.85789 38.1339 1.92834C38.3111 2.00383 38.4708 2.10718 38.6127 2.2384C38.7547 2.36962 38.8133 2.5238 38.7884 2.70095C38.6632 3.2831 38.5432 3.90066 38.4284 4.55362C38.3186 5.19139 38.2364 5.74562 38.1818 6.21629C38.4134 5.71991 38.7463 5.27388 39.1805 4.87822C39.6147 4.48256 40.0946 4.15256 40.6202 3.88824C41.161 3.62893 41.7272 3.44547 42.319 3.33784C42.9259 3.23523 43.5103 3.22628 44.0721 3.31099C44.31 3.35597 44.4999 3.41878 44.6417 3.4994C44.7836 3.58003 44.8723 3.66836 44.908 3.76441C44.9436 3.86046 44.911 3.9845 44.8102 4.13653C44.7245 4.29358 44.5604 4.4078 44.3177 4.4792Z" fill="#FF640A"/>
<path d="M33.8267 3.23386C33.7003 3.25945 33.5637 3.23953 33.4168 3.1741C33.2749 3.09347 33.1785 2.95203 33.1274 2.74976C32.9898 2.35036 32.7464 2.09289 32.397 1.97733C32.078 1.87182 31.7643 1.85231 31.4558 1.9188C31.1675 1.97513 30.8844 2.09216 30.6066 2.2699C30.3489 2.43747 30.1116 2.64546 29.8946 2.89389C29.6776 3.14232 29.4986 3.40331 29.3576 3.67686C29.1058 4.18341 29.0487 4.66168 29.1864 5.11167C29.324 5.56166 29.6663 5.87709 30.2131 6.05797C30.6486 6.21886 31.17 6.2986 31.7771 6.29719C32.4045 6.28561 33.0115 6.2083 33.5981 6.06527C33.8409 6.04446 34.0559 6.05661 34.2433 6.10171C34.4306 6.14682 34.5523 6.2882 34.6085 6.52588C34.6801 6.81917 34.5592 7.05725 34.2459 7.24013C33.9377 7.40782 33.561 7.5276 33.1159 7.59947C32.6658 7.68653 32.2004 7.74327 31.7198 7.76968C31.2594 7.78593 30.804 7.7617 30.3536 7.69697C29.9081 7.61705 29.4828 7.47637 29.0775 7.27493C28.6875 7.07851 28.3479 6.80608 28.0586 6.45763C27.612 5.87175 27.4485 5.19414 27.5682 4.42479C27.6878 3.65545 27.9897 2.92109 28.4738 2.22173C28.6604 1.96326 28.885 1.71734 29.1476 1.48399C29.4151 1.23544 29.703 1.02732 30.0113 0.859638C30.3347 0.696976 30.6684 0.579828 31.0123 0.508193C31.3612 0.421366 31.7204 0.405351 32.0899 0.460147C32.6821 0.554902 33.2013 0.794028 33.6474 1.17752C34.0986 1.54583 34.3173 2.03105 34.3035 2.63318C34.2937 2.76475 34.251 2.89387 34.1754 3.02054C34.1048 3.13202 33.9886 3.20312 33.8267 3.23386Z" fill="#FF640A"/>
<path fill-rule="evenodd" clip-rule="evenodd" d="M55.8585 56.467C56.3986 56.5823 56.7429 57.1137 56.6275 57.6538C55.7838 61.6036 54.7573 65.3969 52.7748 69.0057C50.7843 72.6288 47.8564 76.0201 43.2678 79.2245C37.3362 83.3667 29.1071 85.9932 21.7939 86.6092C16.4083 87.0628 12.582 85.1337 9.09118 83.3737C8.47548 83.0632 7.87022 82.7581 7.26868 82.4722C6.44805 82.0821 5.7382 81.4957 5.14386 81.0047C5.07199 80.9454 5.00181 80.8874 4.93333 80.8313C4.70554 80.6448 4.49224 80.4753 4.28644 80.3251C4.29369 80.4214 4.30146 80.5209 4.30962 80.623C4.31719 80.7179 4.32507 80.8147 4.33304 80.9127C4.3692 81.3573 4.40718 81.8245 4.42698 82.2269C4.4391 82.4734 4.44559 82.7163 4.4389 82.9298C4.4333 83.1088 4.41728 83.3879 4.3269 83.6359C4.28118 83.7613 4.15024 84.0384 3.82021 84.1992C3.46868 84.3704 3.14578 84.2889 2.98477 84.2208C2.73982 84.1171 2.59868 83.9389 2.57856 83.9135C2.5777 83.9124 2.57706 83.9116 2.57665 83.9111C2.4966 83.813 2.43481 83.704 2.40206 83.6449C2.32157 83.4997 2.22528 83.3002 2.12504 83.0822C1.9202 82.6365 1.65793 82.0229 1.39646 81.386C1.13436 80.7476 0.868599 80.0748 0.656775 79.5084C0.457694 78.976 0.273218 78.4524 0.212971 78.1646C0.0884585 77.5699 0.0438026 76.951 0.257433 76.4191C0.373622 76.1298 0.563459 75.8746 0.830321 75.687C1.08959 75.5047 1.37107 75.4215 1.62489 75.3892C2.1025 75.3284 2.60497 75.4335 3.02724 75.5552C3.47075 75.683 3.95087 75.868 4.41967 76.0578C4.60748 76.1339 4.79412 76.2108 4.97931 76.2871C5.75961 76.6086 6.51422 76.9195 7.22269 77.1101C8.14958 77.3595 8.61342 77.2889 8.82172 77.1421C9.27321 76.8241 9.89707 76.9322 10.2151 77.3837C10.5332 77.8352 10.4251 78.459 9.97359 78.7771C8.96633 79.4868 7.68378 79.3053 6.70306 79.0414C6.22364 78.9124 5.72463 78.7363 5.23931 78.5488C5.58993 78.7888 5.90881 79.0452 6.20027 79.2838C6.27063 79.3414 6.33946 79.398 6.40697 79.4535C7.03179 79.9673 7.54439 80.3888 8.1272 80.6658C8.7886 80.9802 9.43329 81.3034 10.0716 81.6235C13.5521 83.3686 16.8438 85.0191 21.6261 84.6163C28.6502 84.0246 36.5273 81.4922 42.1227 77.5847C46.4789 74.5426 49.1903 71.3765 51.0219 68.0427C52.8613 64.6944 53.8396 61.1311 54.6717 57.236C54.787 56.6959 55.3184 56.3516 55.8585 56.467ZM3.20508 77.7284C2.93501 77.6252 2.69128 77.5398 2.47344 77.477C2.32395 77.4339 2.20566 77.4074 2.11426 77.3917C2.12186 77.4812 2.13817 77.6002 2.17052 77.7547C2.18698 77.8333 2.25562 78.0496 2.37472 78.3834C2.4157 78.2899 2.47589 78.1832 2.56479 78.0817C2.66794 77.964 2.82894 77.832 3.05657 77.7624C3.10673 77.7471 3.15635 77.7359 3.20508 77.7284ZM4.16707 82.7026C4.16709 82.7026 4.16651 82.7017 4.1653 82.6997C4.16646 82.7015 4.16705 82.7025 4.16707 82.7026Z" fill="#FF640A"/>
</svg>
