<svg width="603" height="459" viewBox="0 0 603 459" fill="none" xmlns="http://www.w3.org/2000/svg">
<path d="M61 32C61 14.3269 75.3269 0 93 0H510C527.673 0 542 14.3269 542 32V256H61V32Z" fill="#F6F8F9"/>
<path d="M31 50C31 32.3269 45.3269 18 63 18H540C557.673 18 572 32.3269 572 50V274H31V50Z" fill="#E6EBED"/>
<g clip-path="url(#clip0_243_17)">
<rect y="44" width="603" height="256" fill="#D6DADC"/>
<path d="M538.778 30H460.222C457.246 30 454.391 31.18 452.287 33.2805C450.182 35.3809 449 38.2297 449 41.2002V164.403C449 165.402 449.269 166.383 449.778 167.244C450.286 168.105 451.016 168.814 451.892 169.299C452.768 169.783 453.758 170.024 454.759 169.998C455.76 169.972 456.736 169.678 457.585 169.149L499.5 143.003L541.422 169.149C542.271 169.677 543.246 169.968 544.246 169.994C545.246 170.019 546.235 169.777 547.109 169.293C547.984 168.809 548.714 168.101 549.222 167.241C549.73 166.381 549.999 165.401 550 164.403V41.2002C550 38.2297 548.818 35.3809 546.713 33.2805C544.609 31.18 541.754 30 538.778 30Z" fill="#FF640A"/>
<rect y="300" width="603" height="159" fill="#F2F2F2"/>
<rect x="34" y="333" width="340" height="25" rx="12" fill="#D6DADC"/>
<rect x="34" y="384" width="534" height="14" rx="7" fill="#D6DADC"/>
<rect x="34" y="412" width="411" height="14" rx="7" fill="#D6DADC"/>
</g>
<defs>
<clipPath id="clip0_243_17">
<rect y="44" width="603" height="415" rx="32" fill="white"/>
</clipPath>
</defs>
</svg>
