<?xml version="1.0" encoding="utf-8"?>
<!-- Generator: Adobe Illustrator 28.2.0, SVG Export Plug-In . SVG Version: 6.00 Build 0)  -->
<svg version="1.1" id="Layer_1" xmlns="http://www.w3.org/2000/svg" xmlns:xlink="http://www.w3.org/1999/xlink" x="0px" y="0px"
	 viewBox="0 0 500 500" style="enable-background:new 0 0 500 500;" xml:space="preserve">
<style type="text/css">
	.st0{fill:#FFFFFF;}
</style>
<g id="ZYrT2Y_00000009563130834740052350000006693052920487729831_">
	<g>
		<path d="M500,500c-166.6,0-333.3,0-500,0C0,333.4,0,166.8,0,0c166.6,0,333.3,0,500,0C500,166.6,500,333.3,500,500z M91,75.9
			c4,0.6,7.6,1.3,11.3,1.6c18.2,1.6,31.8,9.3,37,28c1.3,4.6,2.6,9.3,2.9,14c1.7,23,4.4,46.1,4.3,69.1c0,57.7-1.1,115.3-2.3,173
			c-0.2,11.1-2.3,22.4-4.9,33.2c-3.8,15.9-14,25.6-30.7,27.9c-5.9,0.8-11.8,1.8-17.8,2.7c0,5.5,0,10.4,0,15.4
			c68.1,0,135.9,0,203.5,0c0-5.4,0-10.3,0-15.6c-5.8-0.6-11.1-1.3-16.5-1.8c-20.6-1.6-31.7-10.5-36.8-30.4
			c-1.9-7.2-3.1-14.7-3.6-22.1c-1.4-23.7-2.5-47.4-3.3-71.1c-0.4-12.4-0.1-24.8-0.1-38c16.3,0.7,32.2,0.4,47.8,2.3
			c17.4,2.1,26.9,14.5,32.8,30c2.7,7.1,4.8,14.5,7.1,21.6c5.3,0,10.2,0,15.3,0c0-43.2,0-86,0-129.1c-5.5,0-10.6,0-15.2,0
			c-2.9,8.6-5.2,16.8-8.6,24.7c-5.3,12.6-13.4,23.6-27.6,25.7c-16.9,2.5-34.2,2.6-52.9,3.8c1.1-52.1,2.2-102.6,3.2-153.8
			c4,0,6.3,0,8.5,0c17.5,0,35,0.4,52.5-0.1c36.1-1.1,61.3,15.7,77.4,46.9c6.4,12.3,11.1,25.4,16.9,38.9c5.8-1.6,12.1-3.4,17.3-4.8
			c0-36.6,0-72.1,0-107.8c-106.7,0-212.2,0-317.8,0C91,65.7,91,70.6,91,75.9z"/>
		<path class="st0" d="M91,75.9c0-5.3,0-10.2,0-15.7c105.6,0,211.1,0,317.8,0c0,35.7,0,71.2,0,107.8c-5.2,1.5-11.5,3.2-17.3,4.8
			c-5.8-13.5-10.6-26.7-16.9-38.9c-16.2-31.2-41.4-48-77.4-46.9c-17.5,0.5-35,0.1-52.5,0.1c-2.2,0-4.5,0-8.5,0
			c-1.1,51.2-2.1,101.7-3.2,153.8c18.7-1.2,36-1.3,52.9-3.8c14.1-2.1,22.3-13.2,27.6-25.7c3.3-7.8,5.6-16.1,8.6-24.7
			c4.6,0,9.7,0,15.2,0c0,43.1,0,85.9,0,129.1c-5.1,0-10,0-15.3,0c-2.3-7.1-4.4-14.5-7.1-21.6c-5.8-15.5-15.4-27.9-32.8-30
			c-15.6-1.9-31.5-1.6-47.8-2.3c0,13.2-0.4,25.6,0.1,38c0.8,23.7,1.9,47.4,3.3,71.1c0.4,7.4,1.7,14.9,3.6,22.1
			c5.1,19.9,16.2,28.8,36.8,30.4c5.4,0.4,10.7,1.1,16.5,1.8c0,5.2,0,10.1,0,15.6c-67.6,0-135.4,0-203.5,0c0-5,0-9.9,0-15.4
			c6-0.9,11.9-1.9,17.8-2.7c16.6-2.3,26.9-12,30.7-27.9c2.6-10.9,4.6-22.1,4.9-33.2c1.2-57.7,2.3-115.3,2.3-173
			c0-23-2.6-46.1-4.3-69.1c-0.4-4.7-1.7-9.4-2.9-14c-5.1-18.8-18.8-26.4-37-28C98.7,77.2,95,76.5,91,75.9z"/>
	</g>
</g>
</svg>
