<?xml version="1.0" encoding="utf-8"?>
<!-- Generator: Adobe Illustrator 28.0.0, SVG Export Plug-In . SVG Version: 6.00 Build 0)  -->
<svg version="1.1" id="Layer_1" xmlns="http://www.w3.org/2000/svg" xmlns:xlink="http://www.w3.org/1999/xlink" x="0px" y="0px"
	 viewBox="0 0 753 753" style="enable-background:new 0 0 753 753;" xml:space="preserve">
<style type="text/css">
	.st0{fill:#8DC63F;}
	.st1{fill:#F9E988;}
	.st2{fill:#FFFFFF;}
	.st3{fill:#8BC53F;}
	.st4{fill:#009345;}
	.st5{fill:#58595B;}
</style>
<g>
	<path class="st0" d="M750,374.8C751,581.1,584.4,749,378.2,750S4,584.4,3,378.2C2,171.9,168.5,4,374.8,3S749,168.5,750,374.8z"/>
	<path class="st1" d="M721.9,374.9c0.8,190.7-153,346.1-343.8,347c-190.8,0.8-346.1-153.1-347-343.8
		c-0.8-190.7,153.1-346.1,343.8-347C565.6,30.3,721.1,184.1,721.9,374.9L721.9,374.9z"/>
	<path class="st2" d="M382.7,53.4c22-4,44.4-4,66.4,0c22.2,3.5,43.6,10.7,63.4,21.3c19.7,10.8,36.7,25.5,53.7,39.4
		c16.9,13.8,33.7,27.9,49.8,43.2c16.3,15.1,30.6,32.4,42.5,51.4c12.2,18.7,22.2,38.9,29.8,60c14.8,42.2,19,87.2,12.2,131.4h-2.2
		c-6.5-42.2-17.3-83.5-32.3-123.5c-7.2-19.7-15.7-39-25.3-57.6c-10.2-18.6-21.4-36.6-33.6-53.9c-12.5-17.5-27.6-32.9-45.2-45.5
		c-17.5-12.5-37.7-20.5-57.2-28.2c-19.6-7.7-39-15.3-59.3-21.1c-20.3-5.9-41-10.2-62.6-14.5L382.7,53.4z"/>
	<path class="st3" d="M551.6,252.9c-25.1-7.3-51.2-17.5-77.3-28c-1.4-6.6-7.3-14.9-19.2-24.9c-17.2-14.9-49.5-14.5-77.3-7.9
		c-30.7-7.2-61.2-9.8-90.6-2.8c-238.6,65.7-103.3,226.4-191,387.8c12.5,26.4,147,181,341.6,139.4c0,0-66.5-159.8,83.6-236.6
		C643.1,417.6,731.1,301.9,551.6,252.9L551.6,252.9z"/>
	<path class="st2" d="M581.1,358c0.1,8-6.4,14.5-14.4,14.7c-8,0.1-14.5-6.4-14.7-14.4c-0.1-8,6.4-14.5,14.4-14.7c0,0,0,0,0.1,0
		C574.5,343.6,581,350.1,581.1,358L581.1,358z"/>
	<path class="st4" d="M377.7,192.2c17.4,1.2,80.3,21.9,96.6,32.8C460.8,185.7,415.2,180.5,377.7,192.2z"/>
	<path class="st2" d="M394.3,291.4c0,37-29.9,66.9-66.9,66.9s-66.9-29.9-66.9-66.9s29.9-66.9,66.9-66.9S394.3,254.5,394.3,291.4z"/>
	<path class="st5" d="M374.5,292c0,25.9-21,47-47,47.1c-25.9,0-47-21-47.1-47c0-25.9,21-47,47-47.1l0,0
		C353.4,245.1,374.5,266,374.5,292z"/>
	<path class="st3" d="M635.2,387.4c-54.2,38.2-115.7,66.9-203,66.9c-40.8,0-49.1-43.2-76.1-22.1c-13.9,10.9-62.9,35.4-102.1,33.7
		c-39.2-1.7-102.3-24.7-119.9-108c-7,83.2-10.6,144.6-41.8,214.9c62.2,99.7,210.6,176.5,345.3,143.5
		c-14.4-101.1,73.9-200.1,123.7-250.8C580.2,446.4,616.5,415.2,635.2,387.4L635.2,387.4z"/>
	<path class="st5" d="M633.1,390c-17.3,14.8-36.5,27.1-57.2,36.6c-20.7,9.8-42,17.7-64.1,23.4s-45.2,10-68.5,7.9
		c-23.3-2.2-47.2-10.1-62.6-27.5l0.7-0.8c19.1,12.4,40.8,16.7,62.6,17.3c22.1,0.6,44.1-1.2,65.8-5.5c21.9-4.6,43.2-11.2,63.9-19.7
		c21-8,40.7-19,58.7-32.4L633.1,390z"/>
</g>
</svg>
