<?xml version="1.0" encoding="utf-8"?>
<!-- Generator: Adobe Illustrator 28.1.0, SVG Export Plug-In . SVG Version: 6.00 Build 0)  -->
<svg version="1.1" id="Layer_1" xmlns="http://www.w3.org/2000/svg" xmlns:xlink="http://www.w3.org/1999/xlink" x="0px" y="0px"
	 viewBox="0 0 2496 2500" style="enable-background:new 0 0 2496 2500;" xml:space="preserve">
<style type="text/css">
	.st0{fill:#FF0000;}
</style>
<path class="st0" d="M1303.3,2109.8l-512.1-9.4c-165.8-3.3-332,3.3-494.6-30.6c-247.3-50.5-264.8-298.2-283.1-506
	C-11.7,1271.8-2,974.4,45.7,684.8c26.9-162.5,132.8-259.5,296.6-270.1c552.8-38.3,1109.3-33.8,1660.9-15.9
	c58.3,1.6,116.9,10.6,174.4,20.8c283.6,49.7,290.5,330.4,308.8,566.7c18.3,238.7,10.6,478.7-24.4,715.8
	c-28.1,196.3-81.9,360.9-308.8,376.8c-284.4,20.8-562.2,37.5-847.4,32.2C1305.8,2109.8,1304.1,2109.8,1303.3,2109.8z M1002.3,1612.8
	c214.3-123,424.5-244,637.6-366.2c-214.7-123-424.5-244-637.6-366.2V1612.8z"/>
</svg>
