<svg width="512" height="512" viewBox="0 0 512 512" fill="none" xmlns="http://www.w3.org/2000/svg">
<g clip-path="url(#clip0_6_182)">
<rect width="512" height="512" rx="48" fill="url(#paint0_linear_6_182)"/>
<g filter="url(#filter0_di_6_182)">
<path d="M103.68 451.556C102.939 445.996 102.939 440.065 103.68 433.764C121.472 431.911 134.26 430.243 142.044 428.76C149.828 426.907 154.647 423.2 156.5 417.64C158.353 412.08 159.28 402.628 159.28 389.284V130.744C159.28 115.176 158.353 104.056 156.5 97.384C154.647 90.712 149.828 86.4493 142.044 84.596C134.631 82.372 122.399 80.5187 105.348 79.036C104.607 73.476 104.607 67.5453 105.348 61.244C114.244 61.244 121.657 61.4293 127.588 61.8C133.889 61.8 140.376 61.8 147.048 61.8C153.72 61.8 162.06 61.9853 172.068 62.356C182.447 62.356 196.161 62.356 213.212 62.356C234.34 62.356 255.839 62.356 277.708 62.356C299.577 61.9853 319.779 61.8 338.312 61.8C357.216 61.8 372.413 61.8 383.904 61.8C395.765 61.4293 402.067 61.244 402.808 61.244C404.661 75.3293 406.7 89.9706 408.924 105.168C411.148 120.365 413.557 136.489 416.152 153.54C413.187 153.911 410.036 154.096 406.7 154.096C403.735 154.096 400.769 153.911 397.804 153.54C388.167 128.705 376.861 111.284 363.888 101.276C350.544 90.5266 329.601 85.152 301.06 85.152H220.44V242.5H257.136C274.928 242.5 288.457 241.388 297.724 239.164C306.991 236.569 313.848 231.195 318.296 223.04C322.744 214.515 326.265 201.171 328.86 183.008C335.532 181.896 341.833 181.896 347.764 183.008C347.393 198.576 347.023 210.993 346.652 220.26C346.652 229.156 346.652 236.199 346.652 241.388C346.652 246.577 346.652 251.396 346.652 255.844C346.652 259.921 346.652 264.555 346.652 269.744C346.652 274.933 346.652 282.161 346.652 291.428C347.023 300.695 347.393 313.297 347.764 329.236C342.204 330.348 335.903 330.348 328.86 329.236C326.636 309.591 323.3 295.505 318.852 286.98C314.404 278.084 307.732 272.524 298.836 270.3C290.311 268.076 278.079 266.964 262.14 266.964H220.44V382.056C220.44 393.547 220.811 402.443 221.552 408.744C222.293 415.045 224.517 420.049 228.224 423.756C231.931 427.092 237.491 429.316 244.904 430.428C252.688 431.54 263.808 432.652 278.264 433.764C279.376 439.695 279.376 445.625 278.264 451.556C270.48 451.556 261.028 451.371 249.908 451C238.788 451 227.668 451 216.548 451C205.799 450.629 196.717 450.444 189.304 450.444C182.261 450.444 173.551 450.629 163.172 451C152.793 451 142.229 451 131.48 451C121.101 451.371 111.835 451.556 103.68 451.556Z" fill="black" fill-opacity="0.5" shape-rendering="crispEdges"/>
</g>
</g>
<defs>
<filter id="filter0_di_6_182" x="90.568" y="49.2439" width="337.584" height="414.312" filterUnits="userSpaceOnUse" color-interpolation-filters="sRGB">
<feFlood flood-opacity="0" result="BackgroundImageFix"/>
<feColorMatrix in="SourceAlpha" type="matrix" values="0 0 0 0 0 0 0 0 0 0 0 0 0 0 0 0 0 0 127 0" result="hardAlpha"/>
<feOffset/>
<feGaussianBlur stdDeviation="6"/>
<feComposite in2="hardAlpha" operator="out"/>
<feColorMatrix type="matrix" values="0 0 0 0 0 0 0 0 0 0 0 0 0 0 0 0 0 0 0.45 0"/>
<feBlend mode="normal" in2="BackgroundImageFix" result="effect1_dropShadow_6_182"/>
<feBlend mode="normal" in="SourceGraphic" in2="effect1_dropShadow_6_182" result="shape"/>
<feColorMatrix in="SourceAlpha" type="matrix" values="0 0 0 0 0 0 0 0 0 0 0 0 0 0 0 0 0 0 127 0" result="hardAlpha"/>
<feOffset dy="4"/>
<feGaussianBlur stdDeviation="2"/>
<feComposite in2="hardAlpha" operator="arithmetic" k2="-1" k3="1"/>
<feColorMatrix type="matrix" values="0 0 0 0 0 0 0 0 0 0 0 0 0 0 0 0 0 0 0.25 0"/>
<feBlend mode="normal" in2="shape" result="effect2_innerShadow_6_182"/>
</filter>
<linearGradient id="paint0_linear_6_182" x1="0" y1="0" x2="512" y2="512" gradientUnits="userSpaceOnUse">
<stop stop-color="#E9EDF5"/>
<stop offset="1" stop-color="#9DA1AB"/>
</linearGradient>
<clipPath id="clip0_6_182">
<rect width="512" height="512" rx="48" fill="white"/>
</clipPath>
</defs>
</svg>
