<?xml version="1.0" encoding="utf-8"?>
<!-- Generator: Adobe Illustrator 28.2.0, SVG Export Plug-In . SVG Version: 6.00 Build 0)  -->
<svg version="1.1" id="Layer_1" xmlns="http://www.w3.org/2000/svg" xmlns:xlink="http://www.w3.org/1999/xlink" x="0px" y="0px"
	 viewBox="0 0 500 500" style="enable-background:new 0 0 500 500;" xml:space="preserve">
<style type="text/css">
	.st0{fill:#2751A3;}
	.st1{fill:#FFFFFF;}
</style>
<rect y="0" class="st0" width="500" height="500"/>
<path class="st1" d="M431.7,344.7c-7.9-6.3-12.5-15.8-12.5-25.9v-174l-68.5-42l-58.9,38.4l-57.1-32.9l-70.3,38.8L113.3,116
	l-54.1,35.8c-1.8,1.2-1.9,3.9,0,5.2l41.4,28.4v153.4l-19.5,11c-2.4,1.4-2.4,4.9,0,6.2l65.6,35.7l52.6-30.1c2.2-1.3,2.3-4.4,0.1-5.8
	l-13.5-8.4V280H221V332l-17.4,11.6c-2,1.4-1.9,4.4,0.2,5.6l77,42.6l55.7-35.2l-26.5-19.2v-58.9l33.3-52.5h-34.2V153l39.3,24.2v156.7
	c0,21.6,12,41.3,31.2,51.2l10.2,5.3c1.7,0.9,3.8,0.7,5.4-0.5l48.1-36L431.7,344.7z M179.9,344.4l-8.7-5V159l8.7-5.9V344.4z
	 M220.1,226.1h-6.4l-27.4,42.5V155.3l33.8,21.9V226.1z M304.5,333.8l-6.8-3.1v-50.9h6.8V333.8z M304.5,226.9h-6.8V153l3.4-2.8
	l3.4,2.8V226.9z"/>
</svg>
