<svg width="512" height="512" viewBox="0 0 512 512" fill="none" xmlns="http://www.w3.org/2000/svg">
<g clip-path="url(#clip0_69_6)">
<rect width="512" height="512" rx="48" fill="#FF640A"/>
<path d="M103.68 451.556C103.124 445.996 103.124 439.88 103.68 433.764C157.056 428.76 159.28 429.316 159.28 389.284V130.744C159.28 84.596 156.5 83.484 105.348 79.036C104.792 73.476 104.792 67.36 105.348 61.244C140.932 61.244 145.38 62.356 213.212 62.356C297.168 62.356 400.028 61.244 402.808 61.244C406.144 89.6 411.148 119.624 416.152 153.54C410.036 154.096 403.364 154.652 397.804 153.54C377.788 103.5 356.104 85.152 301.06 85.152H220.44V242.5H257.136C309.956 242.5 321.076 237.496 328.86 183.008C334.976 181.896 342.204 181.896 347.764 183.008C346.652 230.268 346.652 243.056 346.652 255.844C346.652 268.076 346.652 281.42 347.764 329.236C342.204 330.348 335.532 330.348 328.86 329.236C321.632 270.856 309.956 266.964 262.14 266.964H220.44V382.056C220.44 405.408 220.44 416.528 228.224 423.756C235.452 430.428 249.352 431.54 278.264 433.764C279.376 439.324 279.376 445.996 278.264 451.556C254.912 451.556 210.988 450.444 189.304 450.444C167.62 450.444 127.588 451.556 103.68 451.556Z" fill="white"/>
</g>
<defs>
<clipPath id="clip0_69_6">
<rect width="512" height="512" rx="48" fill="white"/>
</clipPath>
</defs>
</svg>
